<svg width="32" height="32" viewBox="0 0 32 32" fill="none" xmlns="http://www.w3.org/2000/svg">
<path d="M29.0458 15.1691C29.0458 14.9226 29.0681 14.7433 28.9116 14.5416C28.6434 14.183 28.3304 13.8468 28.0174 13.5331C27.5256 13.0848 26.8773 12.7262 26.296 12.4349C24.9994 11.7849 23.6134 11.3367 22.205 11.0229C19.254 10.373 16.169 10.2609 13.151 10.3954C11.9214 10.4626 10.6919 10.5299 9.48467 10.754C9.0152 10.8436 8.54573 10.9333 8.09862 11.0902C7.6068 11.2471 7.09262 11.4263 6.69023 11.7401C6.55609 11.8298 6.44431 11.9418 6.33254 12.0539C6.24311 12.1659 6.15369 12.3004 6.08663 12.4349C6.01956 12.5469 5.93014 12.659 5.88543 12.7935C5.84071 12.9055 5.81836 12.9952 5.81836 13.0848C5.81836 13.1969 5.86307 13.2865 5.86307 13.3762C5.86307 13.3986 6.55609 13.4658 6.62316 13.4882C6.89143 13.5331 7.15969 13.5555 7.42796 13.5779C8.4116 13.6899 9.4176 13.7796 10.4012 13.8692C12.458 14.0485 14.537 14.2502 16.6161 14.4295C18.6057 14.6088 20.573 14.7657 22.5627 14.9674C24.5747 15.1691 26.5643 15.4381 28.5986 15.3932C28.7104 15.3932 28.8446 15.3932 28.9563 15.3932C29.1128 15.3932 29.0458 15.326 29.0458 15.1691ZM11.1113 12.2224C10.776 12.4241 10.6669 12.4446 10.3342 12.7486C9.77529 13.3313 8.79165 13.0176 8.05391 12.9503C7.94214 12.9503 7.83036 12.9279 7.69622 12.9055C7.56209 12.8831 7.33854 12.9279 7.36089 12.7935C7.36089 12.6142 7.4056 12.4797 7.47267 12.3004C7.56209 12.0987 7.91978 12.0091 8.12098 11.9194C8.38925 11.8073 8.65751 11.7177 8.94813 11.6505C9.99884 11.3591 11.1166 11.1798 12.212 11.2022C12.2568 11.2022 12.3015 11.2022 12.3462 11.2022C11.9214 11.4936 11.5558 11.955 11.1113 12.2224Z" fill="#29813F"/>
<path d="M6.04286 4.52718C4.90273 4.45994 3.89673 3.36177 4.00851 2.21877C4.14264 0.986118 5.39455 0.112059 6.55704 0C6.10993 0.717177 5.3722 1.32229 5.14864 2.17394C4.90273 3.048 5.5734 3.85483 6.04286 4.52718Z" fill="#29813F"/>
<path d="M7.24902 9.20718C7.85262 7.728 8.88098 6.47294 9.50693 4.99376C9.84226 4.20935 9.95404 3.42494 9.19395 2.88706C8.61271 2.46123 7.91969 2.23711 7.27138 1.99059C8.07618 1.65441 9.12689 1.632 9.93169 1.99059C10.893 2.41641 11.4295 3.40253 11.2954 4.43347C11.1612 5.57647 10.4682 6.60741 9.68578 7.43665C8.9704 8.15382 8.14324 8.78135 7.24902 9.20718Z" fill="#29813F"/>
<path d="M3.69465 14.945C1.57087 14.8329 -0.664678 12.8383 0.184832 10.5747C0.900209 8.66968 3.22518 7.52668 5.10305 7.28015C4.05234 8.5128 2.50981 9.43168 1.74972 10.9109C0.94492 12.5245 2.6663 13.9365 3.69465 14.945Z" fill="#29813F"/>
<path d="M20.3939 10.0368L16.1463 9.61095C15.8781 9.58854 15.6769 9.34201 15.7216 9.07307L15.8781 7.45942C15.9004 7.19048 16.1463 6.98877 16.4146 7.0336L20.6621 7.45942C20.9304 7.48183 21.1316 7.72836 21.0869 7.9973L20.9304 9.61095C20.9081 9.87989 20.6621 10.0592 20.3939 10.0368Z" fill="#2B823F"/>
<path d="M31.9966 19.2029L31.9519 18.7323C31.8849 18.1495 31.3707 17.7237 30.7894 17.791L28.1738 18.0599C28.1515 17.6565 27.8385 17.3203 27.4361 17.3203H6.55603C6.15363 17.3203 5.8183 17.6565 5.8183 18.0823V18.4857L3.35919 18.2392C2.77794 18.172 2.26377 18.5978 2.1967 19.1805L2.15199 19.6511C2.08492 20.2338 2.50968 20.7493 3.09092 20.8166L5.8183 21.1079V21.5561V22.1388V28.4366C5.8183 30.4088 6.95843 32 8.36683 32H25.6253C27.0337 32 28.1738 30.4088 28.1738 28.4366V22.1388V21.5561V20.6597L31.0353 20.3683C31.6166 20.3235 32.0413 19.7856 31.9966 19.2029ZM12.3908 30.2967H9.37283C9.35047 30.2967 9.32812 30.2967 9.30576 30.2967H9.26105C8.34447 30.2967 7.60674 29.3779 7.60674 28.2348V22.0492C7.60674 21.982 7.60674 21.9371 7.60674 21.8699V20.5476C7.60674 20.2338 7.87501 19.9649 8.18798 19.9649H9.26105H9.30576H9.37283H11.519H12.3908V30.2967Z" fill="#2B823F"/>
</svg>
